<svg width="960" height="600" viewBox="0 0 960 600" fill="none" xmlns="http://www.w3.org/2000/svg" role="img" aria-labelledby="title desc">
  <title id="title">Todo App project preview</title>
  <desc id="desc">A focused task management dashboard with progress stats and completed task rows.</desc>
  <rect width="960" height="600" rx="36" fill="#08111C"/>
  <path d="M0 0H960V600H0V0Z" fill="url(#bg)"/>
  <rect x="92" y="58" width="776" height="484" rx="34" fill="#101827" stroke="#28354F" stroke-width="2"/>
  <rect x="132" y="100" width="696" height="76" rx="26" fill="#0B1220" stroke="#25324B"/>
  <text x="166" y="148" fill="#F8FAFC" font-family="Inter, Arial, sans-serif" font-size="30" font-weight="800">Today&apos;s Focus</text>
  <rect x="642" y="119" width="148" height="38" rx="19" fill="#2563EB"/>
  <text x="675" y="144" fill="#EFF6FF" font-family="Inter, Arial, sans-serif" font-size="16" font-weight="800">Add Task</text>
  <rect x="132" y="210" width="196" height="118" rx="28" fill="#0F766E" fill-opacity=".36" stroke="#14B8A6" stroke-opacity=".35"/>
  <text x="166" y="254" fill="#CCFBF1" font-family="Inter, Arial, sans-serif" font-size="18" font-weight="700">Completed</text>
  <text x="166" y="299" fill="#F8FAFC" font-family="Inter, Arial, sans-serif" font-size="46" font-weight="900">08</text>
  <rect x="382" y="210" width="196" height="118" rx="28" fill="#312E81" fill-opacity=".56" stroke="#818CF8" stroke-opacity=".3"/>
  <text x="416" y="254" fill="#C7D2FE" font-family="Inter, Arial, sans-serif" font-size="18" font-weight="700">In Progress</text>
  <text x="416" y="299" fill="#F8FAFC" font-family="Inter, Arial, sans-serif" font-size="46" font-weight="900">03</text>
  <rect x="632" y="210" width="196" height="118" rx="28" fill="#7C2D12" fill-opacity=".35" stroke="#FB923C" stroke-opacity=".28"/>
  <text x="666" y="254" fill="#FED7AA" font-family="Inter, Arial, sans-serif" font-size="18" font-weight="700">Priority</text>
  <text x="666" y="299" fill="#F8FAFC" font-family="Inter, Arial, sans-serif" font-size="46" font-weight="900">02</text>
  <rect x="132" y="364" width="696" height="56" rx="18" fill="#151F31" stroke="#2E3A55"/>
  <circle cx="168" cy="392" r="13" fill="#22C55E"/>
  <path d="M161 392L166 397L176 386" stroke="#052E16" stroke-width="4" stroke-linecap="round" stroke-linejoin="round"/>
  <text x="198" y="399" fill="#E2E8F0" font-family="Inter, Arial, sans-serif" font-size="19" font-weight="700">Build responsive project cards</text>
  <rect x="132" y="438" width="696" height="56" rx="18" fill="#111827" stroke="#2E3A55"/>
  <circle cx="168" cy="466" r="13" fill="#6366F1"/>
  <path d="M162 466H174" stroke="#EEF2FF" stroke-width="4" stroke-linecap="round"/>
  <text x="198" y="473" fill="#CBD5E1" font-family="Inter, Arial, sans-serif" font-size="19" font-weight="700">Polish CRUD state handling</text>
  <defs>
    <radialGradient id="bg" cx="0" cy="0" r="1" gradientUnits="userSpaceOnUse" gradientTransform="translate(752 63) rotate(138.141) scale(703.273 836.691)">
      <stop stop-color="#14B8A6" stop-opacity=".34"/>
      <stop offset=".48" stop-color="#2563EB" stop-opacity=".16"/>
      <stop offset="1" stop-color="#08111C" stop-opacity="0"/>
    </radialGradient>
  </defs>
</svg>
