<svg xmlns="http://www.w3.org/2000/svg" viewBox="0 0 800 600" preserveAspectRatio="xMidYMid slice">
  <defs>
    <linearGradient id="bg" x1="0%" y1="0%" x2="100%" y2="0%">
      <stop offset="0%" stop-color="#0b0f1a" />
      <stop offset="100%" stop-color="#1a0047" />
    </linearGradient>
  </defs>
  <rect width="800" height="600" fill="url(#bg)" />
  <circle cx="230" cy="335" r="120" fill="#00d4ff" opacity="0.14" />
  <circle cx="560" cy="200" r="90" fill="#a855f7" opacity="0.14" />
  <path d="M120 420C150 370 220 350 270 390C320 430 410 430 450 380C490 330 620 330 660 380" fill="none" stroke="#00d4ff" stroke-width="4" opacity="0.65" stroke-linecap="round" />
  <path d="M70 120H735V486H70z" fill="rgba(255,255,255,0.06)" stroke="rgba(255,255,255,0.15)" stroke-width="2" rx="30" />
  <g fill="white" opacity="0.85">
    <rect x="120" y="160" width="360" height="18" rx="9" />
    <rect x="120" y="200" width="300" height="12" rx="6" />
    <rect x="120" y="232" width="230" height="12" rx="6" />
    <rect x="120" y="266" width="120" height="12" rx="6" />

    <rect x="120" y="312" width="520" height="16" rx="8" />
    <rect x="120" y="340" width="420" height="16" rx="8" />
    <rect x="120" y="368" width="480" height="16" rx="8" />
  </g>
  <circle cx="514" cy="225" r="16" fill="#00d4ff" />
  <circle cx="294" cy="363" r="10" fill="#a855f7" />
  <circle cx="384" cy="272" r="8" fill="#22d3a4" />
</svg>